<svg width="210" height="39" viewBox="0 0 210 39" fill="none" xmlns="http://www.w3.org/2000/svg">
<path d="M24.1707 9.00005C22.6698 9.00381 21.2229 9.23598 19.8624 9.66296C19.8319 9.67253 19.7993 9.67261 19.7687 9.6632C18.4061 9.24298 16.9581 9.01789 15.4571 9.02165C7.45286 9.04158 0.980192 15.5464 1.00005 23.5507C1.0199 31.555 7.52475 38.0276 15.5291 38.0077C17.03 38.004 18.4769 37.7718 19.8374 37.3449C19.8679 37.3353 19.9005 37.3352 19.9311 37.3446C21.2937 37.7648 22.7417 37.9899 24.2427 37.9861C32.247 37.9662 38.7196 31.4615 38.6998 23.4572C38.6798 15.453 32.1751 8.98027 24.1707 9.00005Z" fill="url(#paint0_linear_2222_2553)"/>
<path opacity="0.1" d="M23.8173 38.3494C24.9803 38.3465 26.1106 38.2059 27.1936 37.9445C29.0148 36.4744 30.1655 34.3133 30.8827 32.0847C32.0511 28.4543 32.1773 24.4949 31.2424 20.7976C30.7969 19.0353 30.103 17.3114 28.9923 15.8724C27.8815 14.4334 26.3254 13.294 24.5502 12.9025C27.8833 16.312 29.4928 21.3276 28.7663 26.04C28.0399 30.7523 24.9944 35.0502 20.7893 37.2976C20.521 37.441 20.2224 37.629 20.0236 37.8567C21.2333 38.1806 22.505 38.3526 23.8173 38.3494Z" fill="#5875B1"/>
<path d="M34.4245 13.1866C31.5796 10.3492 27.8007 8.7866 23.7838 8.7866L23.7456 8.78667C22.4482 8.78987 21.1652 8.95783 19.9222 9.28644C19.8428 8.45988 19.8098 7.43402 20.1312 6.53535C20.454 5.63242 21.1524 4.95039 21.9102 4.79779C22.3092 4.71747 22.7788 4.82092 23.1348 5.06776C23.4238 5.26805 23.6088 5.53954 23.6559 5.83202C23.7066 6.14626 24.0021 6.36055 24.3166 6.30935C24.6309 6.25877 24.8446 5.96294 24.7939 5.6487C24.6965 5.04372 24.3405 4.50097 23.7916 4.12033C23.1776 3.69465 22.3895 3.52547 21.6828 3.66764C20.8399 3.83735 20.0786 4.38406 19.5462 5.16429C19.3171 4.3073 19.0252 3.46652 18.6711 2.65365C18.2751 1.74516 17.6014 0.492392 16.3267 0.10391C16.1 0.0349915 15.8638 0 15.6248 0C14.2311 0 12.9235 1.16727 12.7097 2.60208C12.4948 4.04487 13.2866 5.62869 14.6799 6.54303C15.7171 7.22354 17.0469 7.57741 18.7422 7.62511C18.6953 8.20323 18.7191 8.76462 18.7631 9.26545C17.5602 8.96216 16.3216 8.80813 15.0701 8.80813L15.0321 8.8082C6.72283 8.82882 -0.0205674 15.6057 4.71384e-05 23.915C0.0100121 27.9333 1.5825 31.7092 4.42792 34.5471C7.27281 37.3845 11.0517 38.9471 15.0687 38.9471L15.1067 38.947C16.5901 38.9433 18.0544 38.7244 19.462 38.2961C20.8596 38.7138 22.3122 38.9254 23.7824 38.9255L23.8204 38.9254C27.8456 38.9154 31.6259 37.3386 34.4651 34.4853C37.3042 31.632 38.8624 27.8438 38.8524 23.8186C38.8424 19.8003 37.2699 16.0245 34.4245 13.1866ZM15.3123 5.57932C14.4595 5.01976 13.6766 3.93464 13.8498 2.77194C13.9782 1.90932 14.8077 1.15267 15.6248 1.15267C15.75 1.15267 15.8731 1.17077 15.9908 1.2066C16.6141 1.39662 17.13 2.00273 17.6145 3.11409C18.0836 4.19069 18.4387 5.31909 18.6706 6.47008C17.2454 6.41813 16.1457 6.12625 15.3123 5.57932ZM33.648 33.6723C31.026 36.3074 27.5347 37.7635 23.8175 37.7728L23.7823 37.7729C22.8852 37.7728 21.9954 37.6873 21.1228 37.5183C23.0386 36.6163 24.7619 35.3124 26.1621 33.678C28.506 30.942 29.7919 27.4486 29.783 23.8412C29.7723 19.5278 27.9081 15.4178 24.6685 12.5652C24.4297 12.3548 24.0654 12.3779 23.8551 12.6169C23.6447 12.8557 23.6678 13.2199 23.9068 13.4303C26.8988 16.0649 28.6204 19.8607 28.6303 23.8442C28.6386 27.1756 27.4511 30.4018 25.2867 32.9282C23.1447 35.4284 20.1855 37.0932 16.9541 37.6161C16.8772 37.6286 16.8065 37.6558 16.7441 37.6942C16.2017 37.7594 15.6542 37.7931 15.1037 37.7946L15.0685 37.7946C11.3588 37.7946 7.86903 36.3515 5.24162 33.7311C2.61391 31.1103 1.16161 27.6232 1.15249 23.9123C1.1337 16.2383 7.3612 9.97989 15.0348 9.96087L15.07 9.96079C16.4845 9.96079 17.8808 10.1728 19.2202 10.5908C19.3329 10.626 19.4536 10.6257 19.5664 10.59C20.9147 10.1618 22.3217 9.94284 23.7485 9.93934L23.7839 9.93927C27.4934 9.93927 30.9833 11.3824 33.6105 14.0028C36.2383 16.6236 37.6906 20.1106 37.6997 23.8215C37.7089 27.5388 36.2699 31.0372 33.648 33.6723Z" fill="#D0696B"/>
<path d="M56.8158 25.6837H53.0681V30.9673H51.0612V16.1609H56.8158C59.7239 16.1609 61.5875 18.0654 61.5875 20.912C61.5875 23.6767 59.7034 25.6837 56.8158 25.6837ZM56.4677 17.963H53.0681V23.8815H56.3858C58.3722 23.8815 59.4781 22.7142 59.4781 20.8916C59.4781 19.028 58.3518 17.963 56.4677 17.963ZM66.8916 16.1609V30.9673H64.8846V16.1609H66.8916ZM77.5121 31.1926C73.2934 31.1926 70.4877 28.1616 70.4877 23.5743C70.4877 19.0075 73.3753 15.9151 77.6145 15.9151C80.9526 15.9151 83.5124 17.9016 84.0654 20.9325H81.9151C81.3621 19.0075 79.7033 17.8402 77.553 17.8402C74.5631 17.8402 72.5971 20.0929 72.5971 23.5538C72.5971 27.0148 74.5631 29.2675 77.553 29.2675C79.7238 29.2675 81.4441 28.1002 81.997 26.2776H84.1268C83.492 29.2266 80.8502 31.1926 77.5121 31.1926ZM89.6186 30.9673H87.6116V16.1609H89.6186V22.5299H96.9501V16.1609H98.9571V30.9673H96.9501V24.3935H89.6186V30.9673ZM105.422 16.1609V30.9673H103.415V16.1609H105.422ZM124.345 24.6802H118.529V30.9673H116.522V16.1609H125.451V18.004H118.529V22.8575H124.345V24.6802ZM130.913 16.1609V30.9673H128.906V16.1609H130.913ZM137.397 30.9673H135.39V16.1609H137.397L144.974 27.6087V16.1609H146.981V30.9673H144.974L137.397 19.5195V30.9673ZM152.067 30.9673H149.978L155.385 16.1609H157.617L163.044 30.9673H160.935L159.604 27.281H153.378L152.067 30.9673ZM156.245 19.3556L153.992 25.5403H159.01L156.737 19.3556C156.634 19.0689 156.532 18.7208 156.491 18.4955C156.45 18.7003 156.347 19.0484 156.245 19.3556ZM168.043 30.9673H166.036V16.1609H168.043L175.621 27.6087V16.1609H177.627V30.9673H175.621L168.043 19.5195V30.9673ZM188.243 31.1926C184.025 31.1926 181.219 28.1616 181.219 23.5743C181.219 19.0075 184.107 15.9151 188.346 15.9151C191.684 15.9151 194.244 17.9016 194.797 20.9325H192.646C192.093 19.0075 190.435 17.8402 188.284 17.8402C185.294 17.8402 183.328 20.0929 183.328 23.5538C183.328 27.0148 185.294 29.2675 188.284 29.2675C190.455 29.2675 192.175 28.1002 192.728 26.2776H194.858C194.223 29.2266 191.581 31.1926 188.243 31.1926ZM207.374 30.9673H198.343V16.1609H207.374V18.004H200.35V22.6323H206.678V24.414H200.35V29.1037H207.374V30.9673Z" fill="white"/>
<defs>
<linearGradient id="paint0_linear_2222_2553" x1="15.6608" y1="12.4752" x2="15.6608" y2="38.9482" gradientUnits="userSpaceOnUse">
<stop stop-color="#FFD5CA"/>
<stop offset="1" stop-color="#F39983"/>
</linearGradient>
</defs>
</svg>
