<svg width="264" height="264" viewBox="0 0 264 264" fill="none" xmlns="http://www.w3.org/2000/svg">
<path d="M160.967 63.4307C150.81 63.4562 141.018 65.0273 131.812 67.9167C131.605 67.9815 131.384 67.9821 131.178 67.9183C121.957 65.0747 112.158 63.5515 102.001 63.5769C47.8354 63.7118 4.03435 107.731 4.1687 161.896C4.30306 216.062 48.3219 259.862 102.488 259.728C112.645 259.703 122.436 258.131 131.643 255.242C131.849 255.178 132.07 255.177 132.276 255.241C141.498 258.084 151.296 259.607 161.454 259.582C215.619 259.447 259.42 215.429 259.286 161.263C259.151 107.098 215.132 63.2969 160.967 63.4307Z" fill="url(#paint0_linear_2572_3087)"/>
<path opacity="0.1" d="M161.459 259.591C169.329 259.572 176.978 258.62 184.307 256.851C196.631 246.903 204.418 232.279 209.271 217.197C217.178 192.63 218.032 165.837 211.706 140.817C208.691 128.891 203.995 117.225 196.479 107.488C188.962 97.7499 178.432 90.0392 166.419 87.3898C188.974 110.462 199.866 144.403 194.95 176.292C190.034 208.181 169.425 237.265 140.969 252.474C139.153 253.444 137.132 254.716 135.787 256.257C143.973 258.449 152.579 259.613 161.459 259.591Z" fill="#5875B1"/>
<path d="M233.23 89.3093C213.979 70.1082 188.407 59.5339 161.224 59.5339L160.966 59.5345C152.186 59.5561 143.504 60.6927 135.092 62.9164C134.555 57.323 134.332 50.381 136.507 44.2996C138.691 38.1893 143.417 33.574 148.545 32.5414C151.245 31.9978 154.423 32.6979 156.833 34.3683C158.788 35.7236 160.04 37.5608 160.359 39.5401C160.702 41.6666 162.701 43.1166 164.829 42.7702C166.956 42.4279 168.402 40.426 168.06 38.2995C167.4 34.2056 164.992 30.5328 161.277 27.9569C157.122 25.0763 151.789 23.9315 147.006 24.8936C141.302 26.042 136.15 29.7416 132.548 35.0215C130.998 29.2222 129.023 23.5325 126.626 18.0318C123.947 11.884 119.387 3.40639 110.761 0.777505C109.227 0.311131 107.629 0.0743408 106.011 0.0743408C96.5802 0.0743408 87.7315 7.97336 86.285 17.6828C84.8303 27.4463 90.1884 38.1641 99.6173 44.3516C106.636 48.9566 115.635 51.3513 127.107 51.674C126.79 55.5862 126.951 59.3852 127.249 62.7744C119.108 60.722 110.727 59.6796 102.258 59.6796L102.001 59.6801C45.7712 59.8196 0.138101 105.679 0.277602 161.909C0.345035 189.101 10.9862 214.653 30.2414 233.857C49.4929 253.058 75.0648 263.632 102.248 263.632L102.506 263.632C112.544 263.607 122.453 262.125 131.978 259.227C141.436 262.053 151.266 263.486 161.215 263.486L161.472 263.486C188.711 263.418 214.292 252.748 233.505 233.439C252.718 214.13 263.262 188.496 263.195 161.256C263.127 134.065 252.486 108.513 233.23 89.3093ZM103.897 37.83C98.1255 34.0435 92.8276 26.7004 93.9997 18.8323C94.8692 12.9949 100.482 7.87452 106.011 7.87452C106.859 7.87452 107.692 7.99704 108.488 8.23949C112.706 9.52536 116.197 13.627 119.476 21.1476C122.65 28.4331 125.053 36.069 126.623 43.8579C116.978 43.5063 109.536 41.5312 103.897 37.83ZM227.976 227.938C210.232 245.769 186.607 255.623 161.452 255.686L161.214 255.686C155.143 255.686 149.122 255.107 143.217 253.964C156.181 247.86 167.843 239.036 177.318 227.976C193.18 209.461 201.881 185.821 201.821 161.41C201.749 132.22 189.134 104.408 167.211 85.1037C165.595 83.6804 163.13 83.8363 161.706 85.4537C160.283 87.0701 160.439 89.5348 162.056 90.9581C182.303 108.787 193.954 134.473 194.021 161.43C194.077 183.974 186.041 205.805 171.394 222.902C156.899 239.821 136.874 251.087 115.007 254.625C114.487 254.71 114.008 254.894 113.586 255.154C109.916 255.595 106.21 255.823 102.485 255.833L102.247 255.834C77.1434 255.834 53.5276 246.068 35.7478 228.335C17.9658 210.6 8.13801 187.003 8.07624 161.891C7.94909 109.96 50.0911 67.609 102.019 67.4803L102.257 67.4798C111.829 67.4798 121.278 68.9144 130.342 71.743C131.104 71.9814 131.921 71.9793 132.685 71.7374C141.809 68.8398 151.33 67.3583 160.985 67.3346L161.225 67.3341C186.327 67.3341 209.944 77.0997 227.722 94.8322C245.504 112.567 255.332 136.164 255.394 161.277C255.456 186.431 245.719 210.106 227.976 227.938Z" fill="#D0696B"/>
<defs>
<linearGradient id="paint0_linear_2572_3087" x1="103.379" y1="86.9475" x2="103.379" y2="266.093" gradientUnits="userSpaceOnUse">
<stop stop-color="#FFD5CA"/>
<stop offset="1" stop-color="#F39983"/>
</linearGradient>
</defs>
</svg>
