<svg width="27" height="27" viewBox="0 0 27 27" fill="none" xmlns="http://www.w3.org/2000/svg">
<path d="M13.7998 0.238738H13.8003C20.9586 0.238738 26.7615 6.04168 26.7615 13.2V13.2005C26.7615 20.3588 20.9586 26.1617 13.8003 26.1617H13.7998C6.64153 26.1617 0.838592 20.3588 0.838592 13.2005V13.2C0.838592 6.04168 6.64153 0.238738 13.7998 0.238738Z" fill="#111111" stroke="#111111" stroke-width="0.477476"/>
<path d="M13.8003 0H13.7998C6.50968 0 0.599854 5.90983 0.599854 13.2V13.2005C0.599854 20.4906 6.50968 26.4004 13.7998 26.4004H13.8003C21.0905 26.4004 27.0003 20.4906 27.0003 13.2005V13.2C27.0003 5.90983 21.0905 0 13.8003 0Z" fill="url(#paint0_radial_46_296)" fill-opacity="0.7"/>
<path d="M13.7998 0.24176H13.8003C20.9569 0.24176 26.7585 6.04335 26.7585 13.2V13.2005C26.7585 20.3571 20.9569 26.1587 13.8003 26.1587H13.7998C6.6432 26.1587 0.841614 20.3571 0.841614 13.2005V13.2C0.841614 6.04335 6.6432 0.24176 13.7998 0.24176Z" stroke="url(#paint1_linear_46_296)" stroke-width="0.48352"/>
<path fill-rule="evenodd" clip-rule="evenodd" d="M10.9118 7.06104H10.6305L10.4482 7.27522L5.74013 12.8051L5.40405 13.1999L5.74013 13.5946L10.4482 19.1246L10.6305 19.3388H10.9118H19.3879H19.9969V18.7298V15.2143H18.779V18.1209H12.2435L16.1551 13.5982L16.4996 13.1999L16.1551 12.8015L12.2435 8.2789H18.779V11.1855H19.9969V7.66997V7.06104H19.3879H10.9118ZM10.9154 8.6051L7.00352 13.1999L10.9154 17.7947L14.8894 13.1999L10.9154 8.6051Z" fill="white"/>
<defs>
<radialGradient id="paint0_radial_46_296" cx="0" cy="0" r="1" gradientUnits="userSpaceOnUse" gradientTransform="translate(13.8284 3.8548) rotate(90) scale(27.8318 19.5908)">
<stop offset="0.03125" stop-color="#3A3A3A"/>
<stop offset="1" stop-color="#1C1C1C"/>
</radialGradient>
<linearGradient id="paint1_linear_46_296" x1="13.8001" y1="-0.249063" x2="13.8001" y2="26.6495" gradientUnits="userSpaceOnUse">
<stop stop-color="white"/>
<stop offset="1" stop-color="#111111"/>
</linearGradient>
</defs>
</svg>
