<svg width="26" height="26" viewBox="0 0 26 26" fill="none" xmlns="http://www.w3.org/2000/svg">
<circle cx="13" cy="13" r="13" fill="white"/>
<path d="M15.4345 5.82899L13.2437 7.0685C12.4518 7.51653 12.3813 8.63054 13.1105 9.17478L15.3474 10.8444C15.803 11.1844 15.7591 11.8805 15.2644 12.1606L13.2459 13.3037C12.4535 13.7525 12.3842 14.8678 13.1149 15.4111L15.2446 16.9947C15.4656 17.1591 15.5958 17.4182 15.5958 17.6936V17.7587C15.5958 17.9592 15.8123 18.085 15.9864 17.9857L18.1888 16.7305C18.9811 16.2789 19.046 15.1612 18.3114 14.6209L16.076 12.9769C15.6172 12.6394 15.6574 11.9414 16.152 11.6588L18.1928 10.4929C18.9839 10.041 19.0486 8.92478 18.3151 8.38448L16.1788 6.81102C15.956 6.64689 15.8244 6.38661 15.8244 6.10985V6.05637C15.8244 5.85627 15.6087 5.73046 15.4345 5.82899Z" fill="#085A5A"/>
<path d="M10.6304 7.79701L8.43961 9.03652C7.6477 9.48455 7.57724 10.5986 8.30639 11.1428L10.5433 12.8124C10.9989 13.1524 10.955 13.8485 10.4603 14.1287L8.44178 15.2718C7.6494 15.7205 7.58011 16.8358 8.31085 17.3792L10.4405 18.9627C10.6615 19.1271 10.7917 19.3862 10.7917 19.6616V19.7268C10.7917 19.9272 11.0082 20.053 11.1824 19.9537L13.3847 18.6985C14.177 18.2469 14.242 17.1292 13.5073 16.5889L11.272 14.9449C10.8131 14.6074 10.8533 13.9094 11.3479 13.6268L13.3887 12.461C14.1798 12.009 14.2445 10.8928 13.511 10.3525L11.3747 8.77904C11.1519 8.61491 11.0203 8.35463 11.0203 8.07787V8.02439C11.0203 7.82429 10.8046 7.69847 10.6304 7.79701Z" fill="#085A5A"/>
</svg>
